<?xml version="1.0" encoding="utf-8"?>
<svg height="72" version="1.1" id="ofcold_configuration_loader" xmlns="http://www.w3.org/2000/svg" xmlns:xlink="http://www.w3.org/1999/xlink" x="0px" y="0px"
	 viewBox="0 0 1027 200" style="enable-background:new 0 0 1027 200;" xml:space="preserve">
<path fill="#222222" d="M100,0C44.8,0,0,44.8,0,100c0,55.2,44.8,100,100,100s100-44.8,100-100C200,44.8,155.2,0,100,0z"/>
<path fill="#444444" d="M142,42c2.2,0,4,1.8,4,4v108c0,2.2-1.8,4-4,4c-2.2,0-4-1.8-4-4V46C138,43.8,139.8,42,142,42 M100,42
	c2.2,0,4,1.8,4,4v108c0,2.2-1.8,4-4,4c-2.2,0-4-1.8-4-4V46C96,43.8,97.8,42,100,42L100,42 M58,42c2.2,0,4,1.8,4,4l0,0v108
	c0,2.2-1.8,4-4,4c-2.2,0-4-1.8-4-4V46C54,43.8,55.8,42,58,42L58,42 M142,38c-4.4,0-8,3.6-8,8v108c0,4.4,3.6,8,8,8c4.4,0,8-3.6,8-8
	V46C150,41.6,146.4,38,142,38z M100,38c-4.4,0-8,3.6-8,8v108c0,4.4,3.6,8,8,8s8-3.6,8-8V46C108,41.6,104.4,38,100,38z M58,38
	c-4.4,0-8,3.6-8,8v108c0,4.4,3.6,8,8,8s8-3.6,8-8V46C66,41.6,62.4,38,58,38z"/>
<path fill="#111111" d="M100,42c-2.2,0-4,1.8-4,4l0,0v108c0,2.2,1.8,4,4,4c2.2,0,4-1.8,4-4V46C104,43.8,102.2,42,100,42
	C100,42,100,42,100,42z M142,42c-2.2,0-4,1.8-4,4v108c0,2.2,1.8,4,4,4c2.2,0,4-1.8,4-4V46C146,43.8,144.2,42,142,42L142,42z M58,42
	c-2.2,0-4,1.8-4,4l0,0v108c0,2.2,1.8,4,4,4c2.2,0,4-1.8,4-4V46C62,43.8,60.2,42,58,42C58,42,58,42,58,42z"/>
<path fill="#EDEDED" d="M58,62c-8.8,0-16,7.2-16,16c0,8.8,7.2,16,16,16c0,0,0,0,0,0c8.8,0,16-7.2,16-16C74,69.2,66.8,62,58,62z
	 M100,106c-8.8,0-16,7.2-16,16s7.2,16,16,16s16-7.2,16-16S108.8,106,100,106z M142,62c-8.8,0-16,7.2-16,16c0,8.8,7.2,16,16,16
	c0,0,0,0,0,0c8.8,0,16-7.2,16-16C158,69.2,150.8,62,142,62z"/>
<path fill="#C3C3C3" d="M58,72c-3.3,0-6,2.7-6,6s2.7,6,6,6c3.3,0,6-2.7,6-6S61.3,72,58,72z M100,116c-3.3,0-6,2.7-6,6c0,3.3,2.7,6,6,6
	l0,0c3.3,0,6-2.7,6-6C106,118.7,103.3,116,100,116z M142,72c-3.3,0-6,2.7-6,6c0,3.3,2.7,6,6,6s6-2.7,6-6C148,74.7,145.3,72,142,72z"
	/>
<path fill="#FAFBFC" d="M58,62c-4.7,0-9.2,2.1-12.3,5.7C48.6,65.3,52.2,64,56,64c8.8,0,16,7.2,16,16l0,0c0,3.8-1.3,7.4-3.7,10.3
	c3.6-3,5.7-7.5,5.7-12.3C74,69.2,66.8,62,58,62z M142,62c-4.7,0-9.2,2.1-12.3,5.7c2.9-2.4,6.5-3.7,10.3-3.7c8.8,0,16,7.2,16,16
	c0,3.8-1.3,7.4-3.7,10.3c3.6-3,5.7-7.5,5.7-12.3C158,69.2,150.8,62,142,62L142,62z M100,106c-4.7,0-9.2,2.1-12.3,5.7
	c6.8-5.7,16.9-4.7,22.5,2.1c4.9,5.9,4.9,14.5,0,20.5c6.8-5.7,7.7-15.8,2-22.5C109.2,108.1,104.7,106,100,106L100,106z"/>
<path fill="#D6D6D6" d="M60,92c-8.8,0-16-7.2-16-16l0,0c0-3.9,1.4-7.5,3.7-10.3c-3.6,3-5.7,7.5-5.7,12.3c0,8.8,7.2,16,16,16l0,0
	c4.7,0,9.2-2.1,12.3-5.7C67.4,90.7,63.8,92,60,92z M144,92c-8.8,0-16-7.2-16-16c0-3.9,1.4-7.5,3.7-10.3c-3.6,3-5.7,7.5-5.7,12.3
	c0,8.8,7.2,16,16,16c4.7,0,9.2-2.1,12.3-5.7C151.4,90.7,147.8,92,144,92z M102,136c-8.8,0-16-7.2-16-16c0-3.8,1.3-7.4,3.7-10.3
	c-6.8,5.7-7.7,15.7-2.1,22.5c5.7,6.8,15.7,7.7,22.5,2.1c0.7-0.6,1.4-1.3,2.1-2.1C109.4,134.7,105.8,136,102,136L102,136z"/>
<g>
	<path fill="#222222" d="M253.3,136.4c-37.1,2.6-47.5-13.7-47.5-35.5c0-19.9,11.5-37.2,47.1-38.4l0.6,9.4
		c-31.7,0.4-37.6,11.1-37.6,27.8c0,19.6,8,29.7,38.3,28.5L253.3,136.4z"/>
	<path fill="#222222" d="M268.8,108.4c0-18.6,12.4-31.3,27.2-31.3c14.3,0,24.4,10.8,24.4,29.2c0,19-12.3,31.4-27,31.4
		C279.1,137.7,268.8,126.9,268.8,108.4z M310.9,108c0-14.9-6.7-23.2-16.5-23.2c-9.4,0-15.9,7.7-15.9,21.8c0,15,6.7,23.2,16.4,23.2
		C304.3,129.8,310.9,122.2,310.9,108z"/>
	<path fill="#222222" d="M346.1,90.5c0.2,10.4,0.5,25.5,0.5,45.6h-9.5c0-25.1-0.2-43.8-0.8-57l8.8-0.6l0.6,6.6c4.8-4,11-7.6,19.2-7.6
		c10.3,0,17.1,5.7,17.1,19.8V136h-9.5v-35.7c0-11-4.3-14.9-11.6-14.9C355.4,85.4,350.6,87.4,346.1,90.5z"/>
	<path fill="#222222" d="M445.6,136h-45v-7.1h15.7V87.3H400l0.8-7.3h15.6c0-15.1,8-25.5,34.3-26.9l0.7,9.3
		c-22.6,1.1-25.5,4.1-25.5,16.3v1.4h21.8v7.3h-21.8v41.6h20.6L445.6,136z"/>
	<path fill="#222222" d="M463.9,136v-7.3h21.5V86.3L464,85.3l0.7-6.7h30.2v50.1h21.5l-0.7,7.3H463.9z M484.8,69.4l0.7-15.9h10.1
		l-1.1,15.9H484.8z"/>
	<path fill="#222222" d="M533.8,147.6c27.2-2.1,30.8-5.4,31-21.7c-4.1,3.2-9.6,5.6-16.4,5.6c-12.4,0-21.7-9.1-21.7-24.2
		c0-18.5,14.2-30,30.6-30c5.6,0,11,0.9,16.7,2.7c0.1,4.6,0.1,35.9,0.1,42.6c0,19.8-7.8,32-39.5,33.6L533.8,147.6z M564.8,120
		c0-7.8-0.1-23.9,0-32.8c-3.7-1.1-7.3-1.8-10.9-1.8c-10.1,0-17.8,6.9-17.8,19.7c0,12.6,6.8,18.9,15.8,18.9
		C556.5,124,561.1,122.3,564.8,120z"/>
	<path fill="#222222" d="M629.9,129.7c-4.8,4-10.9,7.7-19.1,7.7c-10.2,0-16.9-5.7-16.9-19.9V79l9.5-0.7v36.1c0,11.2,4.2,15,11.4,15
		c5.5,0,10.3-2.1,14.6-5.3c-0.2-10.3-0.5-25.3-0.5-45.4h9.5c0,25.1,0.2,43.8,0.8,57l-8.8,0.6L629.9,129.7z"/>
	<path fill="#222222" d="M656.6,136v-7.3h15.2c-0.2-17.6-0.4-31-0.7-42.5l-14.5-0.8l0.7-6.8h22.2c0.1,1.2,0.6,7.1,0.7,9.8
		c5.6-5.9,14.4-10.5,26.2-11.9l0.5,10.1c-11.7,0.9-20,3.5-26.3,7.6c0.1,10,0.4,21.2,0.5,34.5h19.4l-0.8,7.3H656.6z"/>
	<path fill="#222222" d="M759,129c-4.7,4.3-11.4,8.4-20.4,8.4c-10.4,0-17.6-5.6-17.6-14.9c0-11.8,11.7-20.7,37.1-19.2
		c-0.8-13.2-8.1-16.6-33.7-17.6l1.1-8.2c33.1,0.9,42,7.8,42,30c0,11.9,0.5,20,0.9,28.2l-8.7,0.6C759.7,135.2,759.2,131.6,759,129z
		 M758.5,123.7c-0.1-3.7-0.2-8-0.2-13.6c-21-2.2-27.9,2.3-27.9,10.2c0,6.1,4.7,9.6,11.8,9.6C748,129.9,754.1,127.2,758.5,123.7z"/>
	<path fill="#222222" d="M798.3,117.6V86h-11.8l0.9-7.4h10.9V62.7l9.5-0.8v16.7h23.4V86h-23.4v30.1c0,10,5.5,12.5,24.7,12.9l-1.1,8
		C806.6,137.3,798.3,131.8,798.3,117.6z"/>
	<path fill="#222222" d="M850.3,136v-7.3h21.5V86.3l-21.4-0.9l0.7-6.7h30.2v50.1h21.5l-0.7,7.3H850.3z M871.2,69.4l0.7-15.9h10.1
		l-1.1,15.9H871.2z"/>
	<path fill="#222222" d="M912.8,108.4c0-18.6,12.4-31.3,27.2-31.3c14.3,0,24.4,10.8,24.4,29.2c0,19-12.3,31.4-27,31.4
		C923.1,137.7,912.8,126.9,912.8,108.4z M954.9,108c0-14.9-6.7-23.2-16.5-23.2c-9.4,0-15.9,7.7-15.9,21.8c0,15,6.7,23.2,16.4,23.2
		C948.3,129.8,954.9,122.2,954.9,108z"/>
	<path fill="#222222" d="M990.1,90.5c0.2,10.4,0.5,25.5,0.5,45.6h-9.5c0-25.1-0.2-43.8-0.8-57l8.8-0.6l0.6,6.6c4.8-4,11-7.6,19.2-7.6
		c10.3,0,17.1,5.7,17.1,19.8V136h-9.5v-35.7c0-11-4.3-14.9-11.6-14.9C999.4,85.4,994.6,87.4,990.1,90.5z"/>
</g>
</svg>
